HIERARCHY
ROOT Hips
{
	OFFSET 0.00000 0.00000 0.00000
	CHANNELS 6 Xposition Yposition Zposition Yrotation Zrotation Xrotation 
	JOINT Lumbar
	{
		OFFSET 0 0 0
		CHANNELS 3 Zrotation Xrotation Yrotation
		JOINT Neck
		{
			OFFSET 0.00 0.2701 0.00
			CHANNELS 3 Zrotation Xrotation Yrotation
			End Site
			{
				OFFSET 0.00 0.1379 0.00
			}
		}
		JOINT RightShoulder
		{
			OFFSET 0.0119 0.2289 0.1181
			CHANNELS 3 Zrotation Xrotation Yrotation
			JOINT RightElbow
			{
				OFFSET 0.00 -0.1475 0.00
				CHANNELS 2 Zrotation Yrotation
				JOINT RightWrist
				{
					OFFSET 0.00 -0.1605 0.00
					CHANNELS 2 Zrotation Xrotation
					End Site
					{
						OFFSET 0.0040 -0.1068 0.0006
					}
				}
			}
		}
		JOINT LeftShoulder
		{
			OFFSET 0.0119 0.2289 -0.1181
			CHANNELS 3 Zrotation Xrotation Yrotation
			JOINT LeftElbow
			{
				OFFSET 0.00 -0.1475 0.00
				CHANNELS 2 Zrotation Yrotation
				JOINT LeftWrist
				{
					OFFSET 0.00 -0.1605 0.00
					CHANNELS 2 Zrotation Xrotation
					End Site
					{
						OFFSET 0.0040 -0.1068 -0.0006
					}
				}
			}
		}
	}
	JOINT RightHip
	{
		OFFSET 0.0316 -0.0424 0.0458
		CHANNELS 3 Zrotation Xrotation Yrotation
		JOINT RightKnee
		{
			OFFSET 0.00 -0.2438 0.00
			CHANNELS 1 Zrotation
			JOINT RightAnkle
			{
				OFFSET 0.00 -0.2449 0.00
				CHANNELS 3 Zrotation Xrotation Yrotation
				End Site
				{
					OFFSET 0.1237 -0.0542 0.0051
				}
			}
		}
	}
	JOINT LeftHip
	{
		OFFSET 0.0316 -0.0424 -0.0458
		CHANNELS 3 Zrotation Xrotation Yrotation
		JOINT LeftKnee
		{
			OFFSET 0.00 -0.2438 0.00
			CHANNELS 1 Zrotation
			JOINT LeftAnkle
			{
				OFFSET 0.00 -0.2449 0.00
				CHANNELS 3 Zrotation Xrotation Yrotation
				End Site
				{
					OFFSET 0.1237 -0.0542 -0.0051
				}
			}
		}
	}
}
MOTION
Frames: 17
Frame Time: 0.02
-0 0.57926 0 139.38725 0 -5.48459 4.82365 5.40278 -2.6368 -43.92806 1.20031 0.01158 37.9165 -14.20409 7.44058 10.47779 82.00603 -1.43507 -3.66268 37.1256 13.02963 -14.49925 11.21291 -82.29726 -4.01821 3.54398 -5.97913 7.95821 6.89253 -5.51831 -11.03755 -1.96165 -9.55707 -11.83593 4.83817 20.23284 0.82386 -4.64424 2.28476 5.13963
0.00015 0.57923 -0.00012 139.35623 0 -5.52453 4.776 5.40494 -2.73901 -43.87651 1.1804 0.0554 37.90208 -14.19282 7.53851 10.50766 82.00676 -1.45163 -3.68163 37.09499 13.05266 -14.46555 11.20789 -82.22909 -4.01391 3.55511 -5.826 7.98558 6.34634 -5.79807 -10.91205 -1.92323 -8.96065 -11.66537 4.97032 19.97676 0.44354 -4.43696 2.32188 5.30336
0.00031 0.57921 -0.00024 139.32657 0 -5.5643 4.72779 5.40628 -2.84202 -43.82476 1.16112 0.09956 37.88709 -14.18182 7.63681 10.53755 82.00738 -1.46813 -3.70056 37.0642 13.0756 -14.4317 11.20283 -82.16148 -4.00967 3.56617 -5.67347 8.01446 5.81572 -6.07731 -10.78727 -1.8828 -8.38097 -11.49676 5.10216 19.72151 0.06771 -4.23214 2.35867 5.46547
0.00047 0.57918 -0.00037 139.30169 0 -5.60409 4.67843 5.40569 -2.94864 -43.77307 1.14393 0.14429 37.87125 -14.17139 7.73716 10.56767 82.00729 -1.48459 -3.71959 37.03326 13.09825 -14.39815 11.19751 -82.09531 -4.0055 3.57666 -5.52258 8.04959 5.35134 -6.35603 -10.6645 -1.8309 -7.87088 -11.3375 5.23261 19.46827 -0.28776 -4.03771 2.39429 5.62212
0.00059 0.57915 -0.00044 139.25103 0 -5.64414 4.63707 5.41695 -3.03541 -43.7227 1.11537 0.18453 37.86181 -14.15744 7.82619 10.59639 82.01059 -1.50132 -3.73806 37.00418 13.12223 -14.36451 11.19352 -82.02132 -4.00077 3.5897 -5.36385 8.05155 4.54724 -6.63613 -10.53149 -1.8361 -7.00228 -11.13255 5.36869 19.20577 -0.7438 -3.79131 2.43588 5.807
0.0008 0.57912 -0.00065 139.25527 0 -5.68337 4.57753 5.40202 -3.16457 -43.66845 1.11111 0.23521 37.83757 -14.15127 7.93941 10.62814 82.007 -1.51744 -3.7577 36.97049 13.14348 -14.33009 11.18674 -81.96406 -3.99736 3.59764 -5.2213 8.12371 4.45488 -6.91393 -10.41999 -1.72302 -6.88589 -11.02186 5.4939 18.96217 -0.99158 -3.65297 2.46495 5.93245
0.00121 0.57911 -0.0012 139.41406 0 -5.72337 4.47486 5.32103 -3.4143 -43.61101 1.17457 0.30883 37.78093 -14.16462 8.12261 10.66881 81.98118 -1.53238 -3.7814 36.92845 13.15665 -14.30059 11.17163 -81.95218 -3.9966 3.58865 -5.12616 8.39849 6.4634 -7.18491 -10.3693 -1.24666 -8.9801 -11.20033 5.58135 18.77434 -0.60705 -3.8386 2.45762 5.8872
0.00171 0.5791 -0.00189 139.62786 0 -5.76202 4.35225 5.21233 -3.70623 -43.5481 1.26256 0.39412 37.70767 -14.18628 8.33017 10.71249 81.94893 -1.54658 -3.80617 36.88089 13.16716 -14.26877 11.15379 -81.95731 -3.99733 3.57502 -5.04691 8.74285 9.16847 -7.45362 -10.34004 -0.65681 -11.81211 -11.46931 5.65922 18.60497 -0.02142 -4.12929 2.43792 5.783
0.00219 0.57909 -0.00253 139.81487 0 -5.79939 4.23425 5.11216 -3.9772 -43.48281 1.33899 0.47799 37.63651 -14.20533 8.52437 10.75446 81.92171 -1.56091 -3.8299 36.83297 13.17925 -14.23359 11.13758 -81.95515 -3.9981 3.56539 -4.95831 9.04999 11.46858 -7.72439 -10.29995 -0.1425 -14.22182 -11.67777 5.74679 18.42431 0.43436 -4.35491 2.42511 5.71015
0.00259 0.57909 -0.00311 140.00965 0 -5.84481 4.13578 5.02926 -4.2566 -43.43842 1.41702 0.54552 37.58859 -14.21912 8.72697 10.79782 81.88576 -1.57639 -3.85589 36.7972 13.18978 -14.21783 11.11975 -81.95113 -3.99603 3.54784 -4.87809 9.38063 14.13893 -7.99209 -10.26431 0.47167 -16.99611 -11.96619 5.81229 18.25494 1.04864 -4.65167 2.40714 5.61851
0.00318 0.57907 -0.00385 140.20099 0 -5.87307 3.99101 4.90369 -4.52728 -43.34876 1.49771 0.64976 37.48803 -14.24623 8.91944 10.83906 81.86628 -1.58895 -3.87754 36.73475 13.20293 -14.16011 11.10462 -81.95505 -3.99998 3.5456 -4.78496 9.67899 16.20697 -8.26403 -10.22471 0.90634 -19.18933 -12.11186 5.92085 18.0677 1.38532 -4.8277 2.39674 5.55145
0.00425 0.57899 -0.00497 140.37211 0 -5.85477 3.73058 4.66801 -4.77374 -43.13919 1.5781 0.85348 37.24875 -14.30485 9.0646 10.87305 81.89537 -1.59656 -3.88576 36.6004 13.22389 -13.99535 11.09783 -81.97636 -4.02224 3.58746 -4.6457 9.86993 16.41289 -8.56216 -10.16696 0.80447 -19.57172 -11.82186 6.15592 17.81646 0.86613 -4.62355 2.41244 5.57074
0.00552 0.57889 -0.00625 140.53731 0 -5.81911 3.42275 4.39023 -5.00803 -42.8835 1.66049 1.09357 36.95662 -14.37724 9.20131 10.90491 81.941 -1.60078 -3.88977 36.4393 13.24761 -13.787 11.09385 -82.00513 -4.05015 3.64481 -4.49416 10.02615 15.99397 -8.86198 -10.10483 0.52045 -19.34858 -11.3889 6.43357 17.54907 0.06852 -4.29844 2.43576 5.61557
0.00672 0.5788 -0.00746 140.7035 0 -5.79116 3.13203 4.13103 -5.2413 -42.64653 1.74322 1.3164 36.68692 -14.44541 9.35057 10.93817 81.97803 -1.60449 -3.89649 36.29016 13.27008 -13.59302 11.08838 -82.03076 -4.07405 3.69449 -4.35251 10.19916 15.87997 -9.15199 -10.04603 0.32849 -19.41982 -11.03382 6.68844 17.29498 -0.57581 -4.04231 2.45425 5.64661
0.00786 0.57871 -0.00863 140.87897 0 -5.76413 2.85989 3.87295 -5.5039 -42.41903 1.82211 1.54272 36.42315 -14.50506 9.46357 10.96973 82.01928 -1.61645 -3.89994 36.14169 13.29232 -13.42144 11.0835 -82.05599 -4.1039 3.74635 -4.19308 10.3706 15.70198 -9.48035 -9.98242 0.10154 -19.43641 -10.62655 6.95789 17.01399 -1.32768 -3.72986 2.47824 5.68671
0.00915 0.57862 -0.00993 141.03277 0 -5.73078 2.53734 3.60323 -5.7017 -42.16069 1.90843 1.77024 36.13493 -14.58588 9.65018 11.00427 82.0559 -1.61089 -3.90911 35.98551 13.31589 -13.1935 11.07834 -82.08355 -4.12294 3.7978 -4.06774 10.53584 15.49955 -9.72896 -9.92737 -0.09753 -19.41264 -10.2939 7.20663 16.78795 -1.92227 -3.50565 2.49252 5.71241
0.01079 0.57851 -0.0115 141.13023 0 -5.68665 2.09308 3.30916 -5.72553 -41.8305 2.02081 1.99176 35.79034 -14.71936 10.03802 11.04751 82.07457 -1.5539 -3.93582 35.81487 13.34128 -12.81602 11.06964 -82.11623 -4.10841 3.84105 -4.03789 10.69469 15.38037 -9.75948 -9.89824 -0.17357 -19.42826 -10.19197 7.39309 16.69073 -2.03474 -3.54466 2.48009 5.71325
